<svg width="360" height="200" viewBox="0 0 80 46" fill="none" xmlns="http://www.w3.org/2000/svg">
    <path d="M20.274 45.2584V25.6039H17.6832V33.8348H14.3082V25.6039H11.7174V45.2584H14.3082V36.2156H17.6832V45.2584H20.274ZM32.5407 45.2584C32.4198 44.9509 32.3299 44.5984 32.2678 44.2149C32.209 43.8244 32.178 43.427 32.178 43.0297V38.5065C32.178 37.7429 32.0432 37.0898 31.7703 36.5404C31.4974 35.9944 31.0933 35.6074 30.5509 35.369C30.8687 35.21 31.1451 34.9923 31.3903 34.7194C31.6322 34.4498 31.8221 34.1319 31.9638 33.7657C32.1054 33.3994 32.1745 32.9882 32.1814 32.5355V29.8818C32.1849 29.011 32.0467 28.2577 31.76 27.6219C31.4733 26.9792 31.0207 26.4851 30.4024 26.1361C29.784 25.7836 28.9792 25.6074 27.9912 25.6039H23.953V45.2584H26.5438V36.606H27.9912C28.5335 36.6095 28.9343 36.7961 29.1968 37.152C29.4593 37.5079 29.5871 38.002 29.5871 38.624V43.2957C29.5871 43.6136 29.5975 43.8831 29.6113 44.1043C29.6251 44.3254 29.6562 44.5259 29.7011 44.7055C29.746 44.8818 29.8082 45.0684 29.8877 45.2515H32.5407V45.2584ZM29.5871 32.418C29.5871 33.04 29.4559 33.5341 29.1968 33.8901C28.9343 34.246 28.5335 34.4326 27.9912 34.4395H26.5438V27.9882H27.9912C28.5335 27.9916 28.9343 28.1748 29.1968 28.5341C29.4593 28.89 29.5871 29.3773 29.5871 30.0062V32.418ZM37.9088 45.2584V25.6039H35.318V45.2584H37.9088ZM49.9579 25.6039H47.3947L45.6468 37.9018C45.6053 38.1817 45.5673 38.4961 45.5258 38.8313C45.4913 39.1734 45.4568 39.5086 45.4291 39.8472C45.398 40.1893 45.3704 40.5003 45.3497 40.7802C45.3289 41.067 45.3151 41.2916 45.2979 41.4643C45.2875 41.6406 45.284 41.727 45.284 41.7304H45.2219C45.2219 41.727 45.2184 41.6406 45.208 41.4678C45.1942 41.2985 45.177 41.0704 45.1562 40.7905C45.1355 40.5107 45.1044 40.1962 45.0768 39.861C45.0526 39.5259 45.018 39.1838 44.98 38.8451C44.9386 38.503 44.9006 38.1886 44.8591 37.9018L43.1112 25.6039H40.548L43.7434 45.2584H46.728L49.9579 25.6039ZM54.9599 45.2584V25.6039H52.3691V45.2584H54.9599ZM67.648 45.2584V25.6039H65.2679V36.1534C65.2679 36.6164 65.2886 37.0863 65.3128 37.5735C65.3439 38.0608 65.3784 38.5169 65.4164 38.9384C65.4579 39.36 65.4924 39.7021 65.5201 39.9647C65.5511 40.2308 65.565 40.3621 65.565 40.3724H65.5062L61.5267 25.6005H58.6354V45.2549H61.0155V34.7055C61.0155 34.2218 60.9948 33.7346 60.9637 33.2439C60.9291 32.7532 60.8946 32.3006 60.8497 31.8824C60.8048 31.4643 60.7702 31.1326 60.7357 30.8769C60.7046 30.6212 60.6839 30.4899 60.6839 30.4865H60.746L64.7255 45.2584H67.648ZM79.2479 45.2584V35.2204H75.1199V37.4802H76.6571V41.1292C76.6537 41.8168 76.5155 42.3247 76.2495 42.6461C75.9835 42.964 75.607 43.1229 75.1199 43.1195C74.6363 43.1229 74.2597 42.964 74.0041 42.6461C73.7416 42.3247 73.6138 41.8168 73.6138 41.1292V29.7332C73.6172 29.0386 73.7554 28.5341 74.0214 28.2024C74.2874 27.8742 74.6639 27.7083 75.151 27.7152C75.6381 27.7117 76.0111 27.8742 76.2668 28.2024C76.5293 28.5341 76.6571 29.0421 76.6571 29.7332V31.8133H79.2479V29.5811C79.2445 28.6827 79.0821 27.9225 78.7608 27.2971C78.4396 26.6682 77.9732 26.1914 77.3653 25.8596C76.7573 25.5279 76.018 25.3621 75.151 25.3621C74.2805 25.3621 73.5447 25.5279 72.9298 25.8596C72.3114 26.1914 71.8451 26.6682 71.5135 27.2971C71.1888 27.926 71.0264 28.6827 71.0195 29.5811V41.2812C71.0229 42.6323 71.3546 43.6689 72.0075 44.3945C72.6603 45.1236 73.6034 45.4899 74.847 45.5003C75.4584 45.4899 75.9973 45.3655 76.4706 45.1133C76.9438 44.8679 77.2927 44.5397 77.5311 44.1423L77.9214 45.2584H79.2479ZM0 27.9847V25.6039C2.75318 25.6039 5.86216 25.6039 8.61188 25.6039V27.9847H5.60308V45.2584H3.01226V27.9847H0Z" fill="#1D4670"/>
    <path fill-rule="evenodd" clip-rule="evenodd" d="M79.2478 14.0935C79.2478 12.6976 78.4878 11.4778 77.3617 10.8247C76.2356 11.4778 75.4756 12.6976 75.4756 14.0935C75.4756 15.3168 76.0559 16.4018 76.9575 17.0894L77.3617 12.4591L77.7659 17.0894C78.6675 16.4018 79.2478 15.3133 79.2478 14.0935Z" fill="#2791D0"/>
    <path d="M77.9809 21.4883L71.4141 10.2374C73.3485 9.06601 74.5852 6.9582 74.5852 4.70871C74.5852 2.14824 73.0653 0.5 70.5263 0.5C69.5383 0.510366 68.7265 0.69696 68.1047 1.05978C67.4795 1.42606 67.0166 1.92364 66.723 2.55253C66.4328 3.17796 66.2808 3.88632 66.2877 4.67761C66.2912 5.2443 66.3637 5.77989 66.5122 6.28093C66.6573 6.78197 66.8577 7.28301 67.1133 7.78404C67.3966 8.33 67.704 8.85523 68.0115 9.38736C65.4828 11.1393 64.7436 14.0798 65.1512 16.7923C65.5519 19.4599 67.3171 21.7267 70.585 21.7267C72.0497 21.7267 73.3209 21.3397 74.4747 20.424L75.0965 21.4883H77.9809ZM72.0601 4.98169C72.0635 5.46891 72.0048 5.89392 71.8839 6.25329C71.763 6.61956 71.573 6.95474 71.3035 7.26227C71.0341 7.57326 70.6783 7.88425 70.2257 8.19869L69.8941 7.65619C69.6039 7.17589 69.3691 6.69904 69.1825 6.23256C69.0029 5.76607 68.9062 5.30996 68.9027 4.86075C68.9027 4.21804 69.0374 3.717 69.3034 3.34727C69.5729 2.981 69.9701 2.79095 70.4952 2.78749C71.7353 2.79786 72.067 3.9347 72.0601 4.98169ZM73.2656 18.3577C72.4608 19.142 71.5661 19.4668 70.7301 19.4668C69.2861 19.4668 68.0115 18.444 67.6453 16.7785C67.2135 14.8158 67.8491 12.5145 69.2654 11.5021L73.2656 18.3577Z" fill="#1D4670"/>
    <path d="M59.0567 21.4788V19.0428H55.0082V12.1077H58.5835V9.57489H55.0082V3.34129H59.0567V0.839563H52.2861V21.4788H59.0567ZM50.1927 0.839563H47.5017L45.6674 13.7525C45.626 14.0462 45.5845 14.3745 45.5396 14.7269C45.5016 15.0863 45.4671 15.4388 45.4394 15.7912C45.4083 16.1506 45.3772 16.4754 45.3531 16.7725C45.3323 17.0732 45.3151 17.3116 45.3012 17.4913C45.2909 17.6744 45.284 17.7643 45.284 17.7712H45.2218C45.2218 17.7677 45.2149 17.6779 45.2045 17.4982C45.1872 17.3185 45.1734 17.0801 45.1527 16.7864C45.132 16.4927 45.1009 16.1644 45.0663 15.8119C45.0387 15.4595 45.0042 15.1001 44.9662 14.7477C44.9247 14.3883 44.8833 14.0566 44.8383 13.756L43.0041 0.843019H40.3131L43.6673 21.4823H46.8005L50.1927 0.839563ZM37.971 21.4788V0.839563H35.2489V21.4788H37.971ZM32.2124 3.34129V0.839563H23.5419V3.34129H26.5161V21.4788H29.2382V3.34129H32.2124ZM21.1376 17.2978V14.955H18.4155V17.1388C18.4155 17.8679 18.2842 18.4001 18.0182 18.7491C17.7557 19.0911 17.3688 19.2639 16.8645 19.2605C16.3567 19.2674 15.9629 19.0911 15.6934 18.7491C15.4205 18.4001 15.2823 17.8679 15.2823 17.1388V5.17613C15.2823 4.44703 15.4205 3.91489 15.6934 3.5659C15.9629 3.22381 16.3567 3.04758 16.8645 3.05449C17.3723 3.04758 17.7557 3.22381 18.0182 3.5659C18.2808 3.91489 18.4155 4.44703 18.4155 5.17613V7.35996H21.1376V5.01718C21.1272 3.597 20.7576 2.51199 20.0253 1.74489C19.286 0.981236 18.2359 0.594229 16.8645 0.583862C15.956 0.583862 15.1822 0.756633 14.5396 1.10563C13.9006 1.45463 13.4101 1.95567 13.075 2.61565C12.7364 3.27564 12.5672 4.07039 12.5637 5.01718V17.2978C12.5706 18.2376 12.7364 19.0393 13.075 19.6993C13.4135 20.3593 13.904 20.8603 14.5396 21.2093C15.1822 21.5514 15.9594 21.7276 16.8645 21.7311C18.2359 21.7207 19.286 21.3372 20.0253 20.5701C20.7576 19.8064 21.1272 18.718 21.1376 17.2978ZM9.87273 21.4788H7.18174L5.34744 8.5659C5.30599 8.27219 5.26453 7.94392 5.21963 7.59147C5.18163 7.23211 5.14708 6.87965 5.11945 6.5272C5.08836 6.16783 5.05727 5.84302 5.03309 5.54586C5.01236 5.24523 4.99509 5.00681 4.98127 4.82713C4.97091 4.64399 4.964 4.55415 4.964 4.54724H4.90182C4.90182 4.55069 4.89491 4.64053 4.88455 4.82022C4.86728 4.9999 4.85346 5.23832 4.83273 5.53204C4.81201 5.82575 4.78092 6.15401 4.74637 6.50647C4.72219 6.85892 4.68419 7.21829 4.64619 7.57074C4.60474 7.9301 4.56329 8.26182 4.51838 8.56245L2.69099 21.4788H0L3.35424 0.843019H6.4874L9.87273 21.4788Z" fill="#2791D0"/>
</svg>
